<?xml version="1.0" encoding="UTF-8"?>
<svg width="86px" height="25px" viewBox="0 0 86 25" version="1.1" xmlns="http://www.w3.org/2000/svg" xmlns:xlink="http://www.w3.org/1999/xlink">
    <!-- Generator: Sketch 48.2 (47327) - http://www.bohemiancoding.com/sketch -->
    <title>Page 1</title>
    <desc>Created with Sketch.</desc>
    <defs>
        <polygon id="path-1" points="0.0306805265 0.00284078949 13.3551196 0.00284078949 13.3551196 19.6319576 0.0306805265 19.6319576"></polygon>
    </defs>
    <g id="Footer" stroke="none" stroke-width="1" fill="none" fill-rule="evenodd" transform="translate(-30.000000, -40.000000)">
        <g id="Page-1" transform="translate(30.000000, 40.000000)">
            <path d="M48.4417674,5.28602746 L46.6907048,5.28602746 L46.6907048,8.16374722 L46.6907048,20.1973315 L49.9132964,20.1973315 L49.9132964,18.5025165 L49.9132964,9.58925538 C49.9132964,7.84728327 49.3826369,6.36609562 48.4417674,5.28602746" id="Fill-1" fill="#788791"></path>
            <path d="M84.3316769,5.28602746 L82.5800461,5.28602746 L82.5800461,8.16374722 L82.5800461,20.1973315 L85.8032059,20.1973315 L85.8032059,18.5025165 L85.8032059,9.58925538 C85.8032059,7.84728327 85.2725464,6.36609562 84.3316769,5.28602746" id="Fill-3" fill="#788791"></path>
            <path d="M13.3688122,18.2560496 C11.889329,19.7355328 9.91838925,20.5514075 7.82131845,20.5514075 C3.50956816,20.5514075 5.68157899e-05,17.0634862 5.68157899e-05,12.7755985 C5.68157899e-05,8.48998348 3.50956816,5.00206214 7.82131845,5.00206214 C9.88884504,5.00206214 11.8398993,5.79634688 13.3108601,7.24230874 L10.9484595,9.62289033 C10.1109948,8.80076585 8.99967793,8.34737585 7.82131845,8.34737585 C5.36346738,8.34737585 3.36468789,10.3336559 3.36468789,12.7755985 C3.36468789,15.2198138 5.36346738,17.2060938 7.82131845,17.2060938 C9.0150182,17.2060938 10.1382664,16.7407725 10.9819808,15.8976262 L13.3688122,18.2560496 Z" id="Fill-5" fill="#788791"></path>
            <path d="M7.6725179,21.6206239 C6.6657421,21.6206239 5.93338657,22.380251 5.93338657,23.3080528 L5.93338657,23.3171433 C5.93338657,24.2449452 6.65551526,24.9960499 7.66229105,24.9960499 C8.66963501,24.9960499 9.40142238,24.2358547 9.40142238,23.3080528 L9.40142238,23.2989623 C9.40142238,22.3711604 8.67929369,21.6206239 7.6725179,21.6206239" id="Fill-7" fill="#788791"></path>
            <path d="M65.4632099,18.2205397 C63.9837267,19.7000229 62.0133551,20.5158976 59.9157162,20.5158976 C55.6039659,20.5158976 52.0944546,17.0285445 52.0944546,12.7400886 C52.0944546,8.45504177 55.6039659,4.96712043 59.9157162,4.96712043 C61.9832428,4.96712043 63.934297,5.76083701 65.405826,7.20679887 L63.0428573,9.58794862 C62.2053925,8.76525598 61.0946438,8.31243414 59.9157162,8.31243414 C57.4578651,8.31243414 55.4596538,10.2987142 55.4596538,12.7400886 C55.4596538,15.1843039 57.4578651,17.1711521 59.9157162,17.1711521 C61.1099841,17.1711521 62.2332323,16.7058308 63.0763786,15.8621163 L65.4632099,18.2205397 Z" id="Fill-9" fill="#788791"></path>
            <path d="M21.36768,5.00194851 C17.0610431,5.00194851 13.6867533,8.40180538 13.6867533,12.7413954 L13.6867533,12.7896888 C13.6867533,17.1025754 17.0405894,20.4808423 21.3216592,20.4808423 C25.6277279,20.4808423 29.0008813,17.0809854 29.0008813,12.6942383 C29.0008813,8.38078353 25.6481816,5.00194851 21.36768,5.00194851 M21.3710889,17.198026 C19.0240286,17.198026 17.1854697,15.240722 17.1854697,12.6862841 C17.1854697,10.177867 18.9620994,8.28646932 21.3182502,8.28646932 C23.6653105,8.28646932 25.5038695,10.2432051 25.5038695,12.7413954 L25.5038695,12.7970749 C25.5038695,15.3060602 23.7272397,17.198026 21.3710889,17.198026" id="Fill-11" fill="#788791"></path>
            <g id="Group-15" transform="translate(67.042632, 0.565374)">
                <mask id="mask-2" fill="white">
                    <use xlink:href="#path-1"></use>
                </mask>
                <g id="Clip-14"></g>
                <path d="M7.20424216,4.43657458 C5.66453425,4.43657458 4.33163582,4.88314669 3.25895371,5.74561038 L3.25895371,5.59050328 L3.25895371,4.41384827 L3.25724923,4.41384827 L3.25724923,4.31044353 C3.25724923,2.5673351 2.72545344,1.08444298 1.78344764,0.00267034212 L0.0306805265,0.00267034212 L0.0306805265,2.8843672 L0.0306805265,4.38884932 L0.0306805265,14.9321554 L0.0306805265,19.6319576 L0.294873949,19.6319576 L1.13858843,19.6319576 L2.41467107,19.6319576 L3.25156765,19.6319576 L3.25895371,19.6319576 L3.25895371,18.7882431 L3.25895371,11.1556099 C3.25895371,8.91593146 4.84184161,7.28986355 7.02243163,7.28986355 C9.16438691,7.28986355 10.3927443,8.62276198 10.3927443,10.9465278 L10.3927443,18.7882431 L10.3927443,19.6319576 L11.2370269,19.6319576 L12.5108369,19.6319576 L13.3551196,19.6319576 L13.3551196,18.7882431 L13.3551196,10.7141512 C13.3551196,6.95919565 10.8836327,4.43657458 7.20424216,4.43657458" id="Fill-13" fill="#788791" mask="url(#mask-2)"></path>
            </g>
            <path d="M37.7357977,4.9670068 C35.6472493,4.9670068 34.3075329,5.81469838 33.2393961,6.66409444 L33.2496229,6.75045444 C33.0121329,6.19763681 32.7212361,5.68402207 32.3439792,5.25108575 L30.5929166,5.25108575 L30.5929166,8.1288055 L30.5929166,20.1623898 L33.8155082,20.1623898 L33.8155082,18.4675748 L33.8155082,11.4059403 C33.9450482,9.31568736 35.4677114,7.81972761 37.5539872,7.81972761 C39.6959424,7.81972761 40.9242998,9.15262604 40.9242998,11.4763918 L40.9242998,19.3181072 L40.9242998,20.1623898 L41.7685825,20.1623898 L43.0429606,20.1623898 L43.8872433,20.1623898 L43.8872433,19.3181072 L43.8872433,11.2445834 C43.8872433,7.48962787 41.4151882,4.9670068 37.7357977,4.9670068" id="Fill-16" fill="#788791"></path>
        </g>
    </g>
</svg>