<?xml version="1.0" encoding="UTF-8"?>
<svg width="144px" height="44px" viewBox="0 0 144 44" version="1.1" xmlns="http://www.w3.org/2000/svg" xmlns:xlink="http://www.w3.org/1999/xlink">
    <!-- Generator: Sketch 44 (41411) - http://www.bohemiancoding.com/sketch -->
    <title>Group 2</title>
    <desc>Created with Sketch.</desc>
    <defs>
        <path d="M9.53004982,0.236694712 L34.4086334,0.236694712 C39.6275785,0.236694712 43.8579104,4.44014423 43.8579104,9.62313702 L43.8579104,34.3280769 C43.8579104,39.5133293 39.6275785,43.7145192 34.4086334,43.7145192 L9.53004982,43.7145192 C4.31110467,43.7145192 0.0810571863,39.5133293 0.0810571863,34.3280769 L0.0810571863,9.62313702 C0.0810571863,4.44014423 4.31110467,0.236694712 9.53004982,0.236694712 Z M30.9980314,27.6289387 L27.5708767,24.2649363 C26.359285,25.4681815 24.7466737,26.1319435 23.0316742,26.1319435 C19.5021315,26.1319435 16.6324227,23.2989507 16.6324227,19.813494 C16.6324227,16.3308618 19.5021315,13.497869 23.0316742,13.497869 C24.7239208,13.497869 26.3194675,14.1446839 27.5225268,15.3168594 L30.9155521,11.9217873 C28.8023771,9.85988822 26.000927,8.72725601 23.0316742,8.72725601 C16.8400428,8.72725601 11.8002767,13.7012344 11.8002767,19.813494 C11.8002767,25.9285781 16.8400428,30.9025565 23.0316742,30.9025565 C26.0435886,30.9025565 28.8734799,29.7388546 30.9980314,27.6289387 Z M25.0224956,34.6930048 C25.0224956,33.5914423 24.115224,32.6960697 23.0003321,32.6960697 C21.8825962,32.6960697 20.9753245,33.5914423 20.9753245,34.6930048 C20.9753245,35.7945673 21.8825962,36.6899399 23.0003321,36.6899399 C24.115224,36.6899399 25.0224956,35.7945673 25.0224956,34.6930048 Z" id="path-1"></path>
        <path d="M0.031569641,6.42013221 C0.031569641,3.12250601 2.69337387,0.263245192 6.10232628,0.263245192 C8.34576167,0.263245192 9.74733996,1.27696514 10.8673512,2.42965144 L10.0502379,3.26147236 C9.0232291,2.22289663 7.85629002,1.32498197 6.08042662,1.32498197 C3.37084131,1.32498197 1.26847386,3.56087139 1.26847386,6.37352764 L1.26847386,6.42013221 C1.26847386,9.25764423 3.4419441,11.5164123 6.17342907,11.5164123 C7.85629002,11.5164123 9.1631594,10.6634075 10.1679841,9.55704327 L10.959216,10.2482031 C9.74733996,11.6076442 8.29940264,12.5767368 6.10232628,12.5767368 C2.67005216,12.5767368 0.031569641,9.76521034 0.031569641,6.46617187 L0.031569641,6.42013221 Z" id="path-3"></path>
        <path d="M0.173775231,6.42013221 C0.173775231,3.12250601 2.76561431,0.263245192 6.31591907,0.263245192 C9.84261771,0.263245192 12.4111351,3.07646635 12.4111351,6.37352764 L12.4111351,6.42013221 C12.4111351,9.71747596 9.81929599,12.5767368 6.2706977,12.5767368 C2.7422926,12.5767368 0.173775231,9.76521034 0.173775231,6.46617187 L0.173775231,6.42013221 Z M1.41238592,6.42013221 C1.41238592,9.25764423 3.55969033,11.5164123 6.31591907,11.5164123 C9.14211297,11.5164123 11.1745153,9.23448317 11.1745153,6.46617187 L11.1745153,6.42013221 C11.1745153,3.58403245 9.02550439,1.32498197 6.2706977,1.32498197 C3.44279733,1.32498197 1.41238592,3.60719351 1.41238592,6.37352764 L1.41238592,6.42013221 Z" id="path-5"></path>
        <path d="M1.33075991,2.73074519 C2.12483593,1.34644832 3.45616466,0.263245192 5.62821284,0.263245192 C8.63955841,0.263245192 10.390678,2.29379207 10.390678,5.10531851 L10.390678,12.3004988 L9.24677628,12.3004988 L9.24677628,5.31207332 C9.24677628,2.89259014 7.86880412,1.30182091 5.46524523,1.30182091 C3.12681651,1.30182091 1.33075991,3.05330529 1.33075991,5.49905649 L1.33075991,12.3004988 L0.185436089,12.3004988 L0.185436089,0.539483173 L1.33075991,0.539483173 L1.33075991,2.73074519 Z" id="path-7"></path>
        <path d="M0.223547187,6.42013221 C0.223547187,3.12250601 2.88705789,0.263245192 6.29714794,0.263245192 C8.5374548,0.263245192 9.9390331,1.27696514 11.0607508,2.42965144 L10.2436375,3.26147236 C9.2166287,2.22289663 8.04826757,1.32498197 6.27240416,1.32498197 C3.56424091,1.32498197 1.46045141,3.56087139 1.46045141,6.37352764 L1.46045141,6.42013221 C1.46045141,9.25764423 3.63420606,11.5164123 6.36711309,11.5164123 C8.04826757,11.5164123 9.35513694,10.6634075 10.3602461,9.55704327 L11.1543221,10.2482031 C9.9390331,11.6076442 8.49280225,12.5767368 6.29714794,12.5767368 C2.86373617,12.5767368 0.223547187,9.76521034 0.223547187,6.46617187 L0.223547187,6.42013221 Z" id="path-9"></path>
        <path d="M0.0457902,0.267764423 L0.0457902,17.1038762 L1.19082961,17.1038762 L1.19082961,10.2990445 C1.19082961,7.85498798 2.98859268,6.10209135 5.32559935,6.10209135 C7.73058028,6.10209135 9.10713039,7.69286058 9.10713039,10.1154507 L9.10713039,17.1038762 L10.2507477,17.1038762 L10.2507477,9.90897837 C10.2507477,7.09434495 8.50105017,5.06379808 5.48856695,5.06379808 C3.31651877,5.06379808 1.98462121,6.14841346 1.19082961,7.53242788 L1.19082961,0.267764423 L0.0457902,0.267764423 Z" id="path-11"></path>
        <path d="M0.169509063,0.981802885 C0.169509063,0.593149038 0.488049585,0.279627404 0.881105836,0.279627404 C1.27558414,0.279627404 1.59440907,0.593149038 1.59440907,0.981802885 C1.59440907,1.37073918 1.27558414,1.68539063 0.881105836,1.68539063 C0.488049585,1.68539063 0.169509063,1.37073918 0.169509063,0.981802885 Z" id="path-13"></path>
        <path d="M0.169509063,0.981802885 C0.169509063,0.593149038 0.488049585,0.279627404 0.881105836,0.279627404 C1.27558414,0.279627404 1.59440907,0.593149038 1.59440907,0.981802885 C1.59440907,1.37073918 1.27558414,1.68539063 0.881105836,1.68539063 C0.488049585,1.68539063 0.169509063,1.37073918 0.169509063,0.981802885 Z" id="path-15"></path>
    </defs>
    <g id="Page-1" stroke="none" stroke-width="1" fill="none" fill-rule="evenodd">
        <g id="03-01-Sign-in/up" transform="translate(-215.000000, -261.000000)">
            <g id="Group-2-Copy" transform="translate(215.000000, 261.000000)">
                <g id="Group-2">
                    <g id="Group">
                        <g id="Group-3" transform="translate(0.000000, 0.111286)">
                            <mask id="mask-2" fill="white">
                                <use xlink:href="#path-1"></use>
                            </mask>
                            <use id="Combined-Shape" fill="#FFFFFF" xlink:href="#path-1"></use>
                        </g>
                        <g id="Group-7" transform="translate(11.660858, 8.584844)"></g>
                        <g id="Group-10" transform="translate(58.304292, 15.646142)">
                            <mask id="mask-4" fill="white">
                                <use xlink:href="#path-3"></use>
                            </mask>
                            <use id="Clip-9" fill="#FFFFFF" xlink:href="#path-3"></use>
                        </g>
                        <g id="Group-13" transform="translate(72.524851, 15.646142)">
                            <mask id="mask-6" fill="white">
                                <use xlink:href="#path-5"></use>
                            </mask>
                            <use id="Clip-12" fill="#FFFFFF" xlink:href="#path-5"></use>
                        </g>
                        <g id="Group-16" transform="translate(89.305111, 15.646142)">
                            <mask id="mask-8" fill="white">
                                <use xlink:href="#path-7"></use>
                            </mask>
                            <use id="Clip-15" fill="#FFFFFF" xlink:href="#path-7"></use>
                        </g>
                        <g id="Group-21" transform="translate(110.635949, 15.646142)">
                            <mask id="mask-10" fill="white">
                                <use xlink:href="#path-9"></use>
                            </mask>
                            <use id="Clip-20" fill="#FFFFFF" xlink:href="#path-9"></use>
                        </g>
                        <g id="Group-24" transform="translate(125.994153, 10.844459)">
                            <mask id="mask-12" fill="white">
                                <use xlink:href="#path-11"></use>
                            </mask>
                            <use id="Clip-23" fill="#FFFFFF" xlink:href="#path-11"></use>
                        </g>
                        <g id="Group-29" transform="translate(104.663314, 11.691815)">
                            <mask id="mask-14" fill="white">
                                <use xlink:href="#path-13"></use>
                            </mask>
                            <g id="Clip-28"></g>
                            <polygon id="Fill-27" fill="#FFFFFF" mask="url(#mask-14)" points="-154.15086 130.492788 87.7107014 130.492788 87.7107014 -109.702632 -154.15086 -109.702632"></polygon>
                        </g>
                        <g id="Group-29" transform="translate(141.663314, 11.691815)">
                            <mask id="mask-16" fill="white">
                                <use xlink:href="#path-15"></use>
                            </mask>
                            <g id="Clip-28"></g>
                            <polygon id="Fill-27" fill="#FFFFFF" mask="url(#mask-16)" points="-154.15086 130.492788 87.7107014 130.492788 87.7107014 -109.702632 -154.15086 -109.702632"></polygon>
                        </g>
                    </g>
                    <rect id="Rectangle" fill="#FFFFFF" x="105" y="16" width="1" height="12"></rect>
                    <rect id="Rectangle-Copy" fill="#FFFFFF" x="142" y="16" width="1" height="12"></rect>
                </g>
            </g>
        </g>
    </g>
</svg>